<svg xmlns="http://www.w3.org/2000/svg" width="1260" height="38" viewBox="0 0 1260 38">
    <g fill="none" fill-rule="evenodd">
        <path fill="#357EFF" d="M0 28.2l3.024-3.843s2.843 3.004 6.453 3.004c2.212 0 4.062-.618 4.062-1.9 0-1.369-.993-1.634-4.242-2.296-4.242-.884-7.943-2.65-7.943-6.627C1.354 13.27 4.694 10 10.56 10c4.829 0 8.033 2.562 8.033 2.562l-2.708 3.888s-2.437-1.811-5.325-1.811c-2.031 0-3.882.706-3.882 1.988 0 1.28 1.445 1.59 5.055 2.34C15.976 19.852 19 21.222 19 25.55 19 29.13 15.119 32 9.658 32 3.385 32 0 28.2 0 28.2zM31.478 10C37.201 10 42 14.462 42 20.912c0 .397 0 1.192-.044 1.988H26.371c.396 1.855 2.554 4.24 5.855 4.24 3.655 0 5.724-2.12 5.724-2.12l2.641 3.976S37.29 32 32.226 32C25.886 32 21 27.14 21 21s4.447-11 10.478-11zM27 19h10c-.085-1.708-1.702-4-5.064-4-3.276 0-4.766 2.25-4.936 4zm29.308 8.052c3.592 0 5.189-2.562 5.189-2.562L65 28.024S61.984 32 56.308 32C50.011 32 45 27.14 45 21c0-6.185 5.011-11 11.308-11 5.632 0 8.603 3.888 8.603 3.888l-3.68 3.269s-1.73-2.21-4.923-2.21c-3.592 0-5.898 2.784-5.898 6.053 0 3.27 2.306 6.052 5.898 6.052zM76.95 28C80.255 28 82 25.422 82 25.422v-2.297S80.026 22 77.04 22c-1.698 0-4.04.75-4.04 3.14 0 2.344 2.25 2.86 3.949 2.86zm-.319-18c5.9 0 9.37 3.048 9.37 7.82v13.65h-4.815v-2.65S79.059 32 74.418 32C70.558 32 67 29.438 67 24.976c0-4.02 3.6-6.936 8.068-6.936 3.774 0 5.727 1.502 5.727 1.502V18.35c0-2.739-2.603-3.622-4.425-3.622-2.993 0-6.16 1.546-6.16 1.546L68.518 11.9S72.336 10 76.63 10zM93 31V10h5v21h-5zM92 3.5C92 1.55 93.55 0 95.5 0S99 1.55 99 3.5 97.45 7 95.5 7A3.48 3.48 0 0 1 92 3.5zm22.468 6.5c1.852 0 3.532.679 3.532.679l-1.81 4.889s-.947-.498-2.455-.498c-3.144 0-4.566 2.897-4.566 2.897V32H104V10.543h4.91v3.124S110.678 10 114.469 10zm21.032 1.434A11.1 11.1 0 0 1 141 10c6.13 0 11 4.815 11 11 0 6.14-4.87 11-11 11-2.012 0-3.887-.523-5.5-1.443A11.055 11.055 0 0 1 130 32c-6.13 0-11-4.86-11-11 0-6.185 4.87-11 11-11a11.1 11.1 0 0 1 5.5 1.434zm-3.885 3.755A6.758 6.758 0 0 0 130 15c-3.71 0-6 2.76-6 6s2.29 6 6 6c.577 0 1.12-.067 1.625-.192A11.038 11.038 0 0 1 130 21c0-2.15.589-4.136 1.615-5.81zm3.885-3.755a10.813 10.813 0 0 0-3.885 3.755C134.363 15.864 136 18.26 136 21c0 2.737-1.633 5.13-4.375 5.808a10.877 10.877 0 0 0 3.875 3.749c3.302-1.884 5.5-5.431 5.5-9.557 0-4.155-2.198-7.692-5.5-9.566z"/>
        <text fill="#357EFF" font-family="HelveticaNeue, Helvetica Neue" font-size="16" transform="translate(959 11)">
            <tspan x=".012" y="15">Home</tspan>
        </text>
        <text fill="#357EFF" font-family="HelveticaNeue, Helvetica Neue" font-size="16" transform="translate(1068 11)">
            <tspan x=".828" y="15">Live Feed</tspan>
        </text>
        <text fill="#357EFF" font-family="HelveticaNeue, Helvetica Neue" font-size="16" transform="translate(1192 11)">
            <tspan x=".124" y="15">Detection</tspan>
        </text>
        <g transform="translate(817)">
            <rect width="100" height="38" fill="#357EFF" rx="4"/>
            <text fill="#FFF" font-family="HelveticaNeue, Helvetica Neue" font-size="16">
                <tspan x="30.144" y="23">Login</tspan>
            </text>
        </g>
    </g>
</svg>
