<svg xmlns="http://www.w3.org/2000/svg" width="165" height="152" viewBox="0 0 165 152">
    <g fill="#357EFF" fill-rule="evenodd">
        <path d="M82.5 6.921C90.521 2.501 99.82 0 109.782 0 140.556 0 165 23.857 165 54.5c0 30.424-24.444 54.5-55.218 54.5-9.962 0-19.261-2.523-27.282-6.968C74.479 106.477 65.18 109 55.218 109 24.444 109 0 84.924 0 54.5 0 23.857 24.444 0 55.218 0 65.18 0 74.48 2.5 82.5 6.921zM62.866 25.398a31.038 31.038 0 0 0-6.993-.775c-17.679 0-28.591 13.79-28.591 29.986 0 16.197 10.912 29.986 28.591 29.986 2.532 0 4.925-.282 7.168-.815-5.38-8.422-8.478-18.449-8.478-29.28 0-10.79 3.032-20.74 8.303-29.102zM82.5 6.92c-8.031 4.427-14.782 10.78-19.634 18.477 13.518 3.12 21.598 15.274 21.598 29.211 0 13.877-8.01 25.987-21.423 29.171A54.303 54.303 0 0 0 82.5 102.032c16.757-9.285 27.937-26.957 27.937-47.532 0-20.723-11.18-38.343-27.937-47.579zM2 147.808l3.31-4.241s3.113 3.315 7.066 3.315c2.421 0 4.447-.683 4.447-2.096 0-1.512-1.087-1.804-4.645-2.535-4.644-.975-8.696-2.925-8.696-7.312 0-3.608 3.657-7.215 10.08-7.215 5.287 0 8.795 2.828 8.795 2.828l-2.965 4.29s-2.668-2-5.83-2c-2.224 0-4.25.78-4.25 2.194s1.582 1.755 5.534 2.584c4.645.975 7.955 2.486 7.955 7.263 0 3.948-4.249 7.117-10.227 7.117C5.706 152 2 147.808 2 147.808zm35.525-20.084c6.424 0 11.81 4.924 11.81 12.04 0 .44 0 1.317-.05 2.194H31.794c.445 2.048 2.866 4.68 6.571 4.68 4.101 0 6.424-2.34 6.424-2.34l2.964 4.387S44.048 152 38.365 152c-7.115 0-12.599-5.362-12.599-12.138s4.99-12.138 11.76-12.138zm-5.731 9.993h11.611c-.099-1.998-1.976-4.68-5.88-4.68-3.804 0-5.533 2.633-5.731 4.68zm32.907 8.823c4.002 0 5.78-2.827 5.78-2.827l3.904 3.9S71.025 152 64.701 152c-7.016 0-12.6-5.362-12.6-12.138 0-6.824 5.584-12.138 12.6-12.138 6.275 0 9.585 4.29 9.585 4.29l-4.1 3.607s-1.928-2.437-5.485-2.437c-4.002 0-6.572 3.07-6.572 6.678 0 3.607 2.57 6.678 6.572 6.678zm22.728.585c3.558 0 5.435-2.68 5.435-2.68v-2.39s-2.124-1.17-5.336-1.17c-1.828 0-4.348.78-4.348 3.267 0 2.437 2.421 2.973 4.25 2.973zm-6.62-12.479zm0 0l-1.928-4.826s4.348-2.096 9.24-2.096c6.72 0 10.672 3.364 10.672 8.628v15.063H93.31v-2.925S90.888 152 85.6 152c-4.397 0-8.449-2.827-8.449-7.75 0-4.437 4.101-7.654 9.19-7.654 4.299 0 6.522 1.657 6.522 1.657v-1.316c0-3.022-2.964-3.997-5.04-3.997-3.408 0-7.013 1.705-7.016 1.706zm24.852 16.769v-23.106h5.93v23.106h-5.93zm-.939-30.564c0-2.145 1.73-3.851 3.904-3.851s3.903 1.706 3.903 3.851-1.73 3.85-3.903 3.85c-2.174.001-3.904-1.705-3.904-3.85zm25.743 6.873c2.124 0 4.051.731 4.051.731l-2.075 5.265s-1.087-.536-2.816-.536c-3.607 0-5.237 3.12-5.237 3.12v15.111h-5.93v-23.106h5.633v3.364s2.026-3.949 6.374-3.949zm18.034 0c6.967 0 12.501 5.314 12.501 12.138 0 6.776-5.534 12.138-12.5 12.138-6.967 0-12.501-5.362-12.501-12.138 0-6.824 5.534-12.138 12.5-12.138zm0 18.816c4.003 0 6.473-3.07 6.473-6.678 0-3.607-2.47-6.678-6.473-6.678-4.002 0-6.472 3.07-6.472 6.678 0 3.607 2.47 6.678 6.472 6.678z"/>
    </g>
</svg>
